<?xml version="1.0" standalone="no"?>
<!DOCTYPE svg PUBLIC "-//W3C//DTD SVG 20010904//EN"
 "http://www.w3.org/TR/2001/REC-SVG-20010904/DTD/svg10.dtd">
<svg version="1.0" xmlns="http://www.w3.org/2000/svg"
 width="762.000000pt" height="761.000000pt" viewBox="0 0 762.000000 761.000000"
 preserveAspectRatio="xMidYMid meet">
<metadata>
Created by potrace 1.12, written by Peter Selinger 2001-2015
</metadata>
<g transform="translate(0.000000,761.000000) scale(0.100000,-0.100000)"
fill="#000000" stroke="none">
<path d="M3560 7593 c-290 -19 -680 -94 -908 -174 -48 -17 -121 -42 -162 -55
-41 -14 -79 -30 -85 -35 -5 -5 -15 -9 -22 -9 -32 0 -418 -190 -504 -249 -26
-17 -50 -31 -53 -31 -9 0 -70 -43 -74 -52 -2 -5 -8 -8 -13 -8 -8 0 -158 -97
-169 -110 -3 -3 -50 -39 -105 -80 -134 -100 -519 -482 -625 -620 -14 -18 -37
-47 -51 -64 -30 -36 -212 -303 -221 -326 -4 -8 -29 -51 -56 -95 -44 -70 -182
-335 -182 -349 0 -3 -13 -35 -30 -71 -16 -36 -30 -71 -30 -78 0 -7 -4 -17 -9
-23 -19 -21 -120 -349 -155 -499 -70 -310 -96 -546 -96 -869 1 -340 45 -695
119 -946 10 -36 23 -85 29 -110 6 -25 19 -63 28 -85 10 -22 19 -53 22 -70 2
-16 7 -34 12 -40 4 -5 13 -28 20 -50 7 -22 20 -53 28 -70 9 -16 17 -36 18 -43
1 -8 10 -30 20 -50 10 -20 19 -43 20 -49 4 -22 95 -206 127 -257 17 -27 32
-56 34 -64 1 -8 7 -18 13 -22 7 -4 11 -10 11 -14 -2 -7 19 -44 49 -91 11 -16
28 -46 39 -65 10 -19 39 -62 64 -96 24 -33 50 -72 57 -85 7 -13 24 -33 37 -44
12 -11 23 -24 23 -28 0 -7 31 -46 66 -83 12 -13 20 -25 17 -28 -3 -3 18 -28
46 -56 28 -28 51 -53 51 -55 0 -2 19 -22 43 -45 117 -113 237 -235 237 -240 0
-4 11 -13 25 -20 14 -7 23 -15 21 -18 -4 -3 43 -48 79 -75 52 -38 140 -110
159 -128 12 -12 39 -32 58 -43 20 -12 57 -36 82 -53 26 -18 51 -33 57 -33 5 0
9 -4 9 -8 0 -4 27 -24 60 -43 33 -18 60 -37 60 -41 0 -5 5 -8 11 -8 6 0 24 -9
40 -21 16 -11 29 -17 29 -13 0 3 7 1 15 -6 9 -7 35 -23 58 -35 23 -12 76 -40
118 -62 68 -36 113 -54 123 -50 2 1 12 -5 22 -14 20 -16 107 -59 122 -59 5 0
27 -9 50 -20 23 -11 45 -19 49 -18 4 1 19 -3 33 -9 14 -5 45 -17 70 -25 25 -9
59 -20 75 -26 72 -25 162 -52 185 -55 14 -2 32 -6 40 -9 44 -16 101 -27 150
-29 30 -1 60 -6 65 -10 12 -9 48 -18 125 -30 191 -30 262 -34 570 -33 338 2
498 9 515 25 5 5 35 9 67 9 33 0 84 9 115 20 32 11 73 20 93 20 41 1 216 42
280 67 8 3 20 7 25 8 29 7 211 69 220 75 6 4 28 13 50 20 22 7 45 16 50 20 6
4 28 13 50 20 22 7 54 20 70 28 17 9 34 15 39 14 4 -2 14 5 22 15 7 10 14 14
14 9 0 -5 8 -2 18 7 9 8 20 16 25 16 13 0 136 61 142 71 3 4 18 11 34 15 15 3
37 14 47 23 24 22 76 55 132 83 23 12 42 25 42 31 0 5 4 7 8 4 5 -3 29 9 54
27 25 18 74 52 109 76 74 51 137 102 188 149 20 18 54 46 76 61 22 16 74 65
116 110 43 44 82 81 87 81 6 0 14 9 17 20 3 11 10 20 15 20 12 0 200 197 200
211 0 3 12 19 26 35 14 16 32 41 40 56 8 15 22 32 32 37 9 5 49 56 87 112 39
57 76 110 83 117 6 7 12 17 12 22 0 5 6 15 13 22 7 7 24 33 38 58 13 25 27 47
30 50 10 8 40 70 34 70 -3 0 3 10 15 22 11 12 20 26 20 30 0 5 11 26 25 48 14
22 23 40 20 40 -3 0 5 17 18 38 13 20 24 39 25 42 0 3 16 39 35 80 77 167 151
373 139 384 -3 3 -1 6 4 6 5 0 16 21 23 47 7 27 16 59 21 73 27 85 76 296 89
385 6 39 17 115 25 170 29 191 39 466 26 687 -6 111 -14 207 -17 212 -4 5 -10
43 -14 85 -4 42 -10 87 -12 101 -3 14 -8 48 -12 75 -6 48 -14 82 -51 240 -20
89 -83 297 -93 310 -4 5 -13 29 -19 52 -7 22 -20 58 -29 80 -9 21 -17 43 -19
48 -11 52 -183 407 -239 495 -16 25 -38 61 -48 80 -31 56 -227 337 -244 349
-4 3 -21 24 -38 46 -16 22 -31 42 -34 45 -4 3 -30 34 -60 70 -60 72 -389 400
-402 400 -4 0 -33 24 -65 52 -31 29 -68 61 -83 70 -14 10 -57 40 -96 68 -214
154 -481 308 -685 395 -36 15 -84 36 -107 46 -24 11 -49 19 -56 19 -7 0 -17 4
-22 9 -6 5 -64 27 -130 50 -405 136 -820 203 -1235 199 -102 -1 -205 -3 -230
-5z m580 -64 c1123 -94 2159 -711 2786 -1659 327 -495 510 -985 596 -1599 30
-212 32 -702 5 -911 -63 -471 -184 -869 -388 -1267 -529 -1035 -1514 -1767
-2659 -1977 -437 -80 -971 -77 -1397 9 -747 150 -1401 501 -1938 1041 -469
470 -818 1091 -975 1737 -249 1017 -65 2089 507 2956 551 834 1403 1411 2378
1610 351 71 713 92 1085 60z"/>
<path d="M3960 7115 c0 -8 14 -21 30 -30 17 -9 30 -17 30 -19 0 -8 -100 -317
-116 -355 -17 -42 -18 -43 -56 -37 -56 9 -52 -20 5 -34 23 -6 76 -24 117 -40
48 -18 79 -25 85 -18 10 9 2 18 -41 44 -17 10 -17 13 0 75 9 35 23 76 29 91
l12 27 117 -39 c65 -21 122 -41 127 -44 6 -4 -2 -42 -18 -89 l-28 -82 -41 -3
c-29 -2 -42 -8 -42 -18 0 -8 6 -14 14 -14 12 0 157 -46 212 -67 25 -9 15 24
-13 45 l-26 19 62 192 c34 105 67 191 74 192 7 1 24 0 40 -1 17 -1 27 3 27 13
0 15 -226 94 -238 82 -4 -3 5 -16 21 -27 15 -11 27 -29 27 -42 0 -19 -37 -144
-46 -155 -6 -7 -246 73 -250 84 -3 6 8 47 23 90 28 78 28 79 63 79 59 1 45 19
-32 41 -40 12 -90 29 -112 38 -47 21 -56 21 -56 2z"/>
<path d="M3280 7010 c-19 -10 -62 -29 -95 -41 -71 -26 -77 -30 -66 -47 5 -9
15 -10 33 -3 40 15 40 14 121 -184 25 -60 53 -128 62 -150 17 -39 17 -39 -9
-62 -26 -22 -34 -43 -17 -43 4 0 37 13 72 29 35 16 83 35 107 42 30 9 42 17
39 28 -3 17 -6 17 -48 7 -26 -6 -28 -2 -103 177 -42 100 -76 187 -76 193 0 6
11 21 25 34 42 40 15 53 -45 20z"/>
<path d="M2686 6597 c-96 -100 -161 -176 -156 -181 5 -5 20 0 36 13 15 11 32
21 38 21 6 0 78 -64 159 -143 l149 -142 -26 -34 c-18 -24 -23 -38 -16 -45 7
-7 14 -5 23 4 7 8 84 88 171 177 l158 161 -42 61 c-22 34 -45 59 -50 56 -5 -3
-6 -36 -3 -73 l6 -68 -44 -53 c-24 -30 -59 -65 -76 -79 l-32 -24 -66 63 c-36
34 -65 67 -65 73 0 17 93 106 111 106 8 0 25 -7 37 -16 20 -14 42 -12 42 4 0
15 -141 133 -150 127 -8 -5 -6 -15 4 -31 26 -38 19 -63 -31 -114 l-48 -49 -69
65 -69 66 76 76 76 76 50 -13 c69 -17 80 -7 39 36 -61 64 -50 69 -232 -120z"/>
<path d="M4816 6711 c-4 -5 2 -23 11 -39 22 -38 23 -36 -125 -160 -138 -116
-163 -156 -144 -229 25 -92 125 -192 208 -207 53 -10 105 20 234 136 l113 102
29 -17 c48 -27 51 -9 8 41 -21 26 -48 58 -58 71 -24 31 -49 20 -27 -12 8 -12
15 -29 15 -38 0 -24 -193 -204 -246 -229 -57 -28 -108 -15 -157 39 -65 72 -58
118 30 202 73 69 203 179 212 179 4 0 18 -11 31 -25 17 -18 27 -22 36 -14 10
8 -1 27 -50 84 -35 40 -72 84 -81 99 -18 27 -30 32 -39 17z"/>
<path d="M3678 6520 c-223 -35 -413 -136 -582 -307 -421 -426 -570 -1170 -366
-1825 l29 -93 -77 82 c-82 87 -112 106 -237 147 -445 146 -1048 -10 -1505
-390 -387 -321 -648 -798 -505 -921 34 -30 80 -30 201 2 111 29 165 31 263 10
247 -52 479 -205 879 -579 61 -57 153 -132 204 -166 233 -156 549 -260 748
-247 100 6 148 22 209 68 l51 39 117 -119 c216 -216 403 -307 662 -318 293
-13 522 84 758 324 51 51 94 93 97 93 3 0 25 -13 48 -30 113 -78 316 -78 553
1 99 33 122 42 240 101 153 77 197 110 456 347 236 216 399 335 572 416 174
82 309 102 447 65 160 -43 220 -37 245 25 32 76 4 206 -77 355 -178 325 -489
614 -858 796 -308 152 -629 211 -919 168 -205 -30 -335 -89 -420 -190 -30 -35
-56 -62 -58 -60 -3 2 7 40 21 84 14 44 37 142 52 218 24 124 27 162 28 354 0
245 -19 387 -79 585 -154 508 -497 871 -902 954 -76 15 -230 21 -295 11z m205
-2033 c94 -40 81 -179 -19 -206 l-29 -7 -2 -540 c-2 -531 -2 -538 16 -484 60
183 186 390 354 580 l75 84 -19 25 c-38 48 -15 126 45 155 43 20 76 20 120 -1
49 -23 72 -73 57 -123 -6 -20 -19 -44 -28 -52 -29 -26 -88 -38 -130 -26 -40
11 -36 14 -138 -102 -137 -157 -261 -367 -320 -543 -31 -94 -32 -106 -15 -222
7 -53 10 -125 7 -173 l-6 -83 49 101 c107 218 274 419 414 499 110 63 189 84
316 85 124 1 206 -15 310 -61 l55 -24 38 21 c68 39 151 20 182 -40 52 -100
-60 -197 -169 -145 -45 22 -70 67 -62 115 6 37 5 38 -42 58 -143 62 -340 82
-460 47 -69 -20 -160 -65 -216 -105 -150 -110 -300 -318 -393 -545 -21 -52
-43 -95 -48 -95 -6 0 -17 17 -24 38 -27 74 -128 269 -184 353 -97 146 -255
284 -374 329 -165 62 -360 54 -536 -22 -47 -20 -48 -22 -42 -55 23 -124 -171
-186 -230 -73 -25 49 -19 88 19 126 29 29 41 34 82 34 31 0 61 -7 81 -19 l31
-20 94 33 c184 65 324 72 469 21 110 -38 172 -80 279 -185 104 -102 161 -183
248 -349 30 -58 57 -108 58 -110 2 -2 1 32 -2 75 -4 46 -1 116 6 169 17 116
16 128 -15 222 -61 183 -188 391 -346 571 -69 78 -74 82 -103 75 -136 -33
-230 92 -137 181 98 94 269 -24 192 -133 l-19 -26 74 -84 c135 -153 239 -311
308 -471 20 -47 43 -98 51 -115 12 -26 14 41 12 499 l-2 528 -35 12 c-37 12
-80 65 -80 98 0 85 97 140 183 105z"/>
<path d="M2337 6128 l-27 -83 132 -132 c73 -73 128 -133 123 -133 -70 -3 -366
-28 -368 -31 -2 -2 -18 -38 -35 -79 -21 -50 -27 -78 -21 -85 7 -7 17 -1 31 18
11 15 29 27 40 27 28 0 328 -130 351 -153 13 -13 17 -26 12 -48 -5 -21 -3 -29
7 -29 10 0 62 113 76 168 6 21 -19 13 -40 -13 -11 -14 -26 -25 -34 -25 -20 0
-294 112 -294 120 0 3 21 7 48 8 26 2 111 7 190 12 78 6 145 9 150 9 47 -8 41
29 -13 71 -70 54 -262 250 -245 250 8 -1 80 -24 160 -53 l145 -52 5 -38 c3
-21 9 -38 15 -38 5 0 19 28 31 63 11 35 31 82 43 105 11 23 21 47 21 53 0 18
-22 11 -42 -15 -11 -14 -27 -25 -36 -25 -9 0 -96 27 -192 60 l-175 59 -5 42
c-3 23 -10 44 -15 46 -6 2 -23 -34 -38 -79z"/>
<path d="M4790 5988 c0 -7 7 -26 16 -43 9 -16 22 -51 30 -77 19 -60 46 -67 42
-10 l-3 37 69 0 69 0 28 -67 27 -67 -51 -46 -52 -45 -27 32 c-22 25 -28 28
-33 16 -4 -9 1 -31 11 -50 9 -18 29 -66 44 -106 15 -40 31 -73 36 -73 5 0 10
16 12 35 3 31 26 58 181 211 144 142 178 180 173 197 -5 21 -8 21 -259 15
l-253 -5 -21 29 c-21 30 -39 38 -39 17z"/>
<path d="M3259 1648 c-1 -7 0 -25 1 -41 1 -15 -3 -42 -8 -60 -5 -17 -18 -68
-27 -112 -10 -44 -30 -107 -46 -139 -18 -36 -26 -63 -20 -69 11 -11 66 41 105
101 18 26 36 42 49 42 11 0 50 9 86 19 36 11 94 22 128 26 146 16 200 67 100
94 -39 11 -51 9 -161 -29 -65 -22 -121 -38 -124 -35 -3 2 4 31 14 63 l20 59
-41 47 c-40 44 -74 60 -76 34z"/>
<path d="M2824 1616 c-3 -8 6 -38 20 -68 17 -35 28 -80 32 -129 l6 -76 -67
-21 c-57 -19 -72 -21 -106 -11 -21 7 -42 10 -45 6 -3 -3 7 -22 23 -42 19 -24
42 -40 71 -48 23 -6 42 -17 42 -25 0 -9 7 -11 19 -7 15 5 1 -32 -65 -167 -47
-95 -92 -184 -100 -198 -8 -14 -22 -41 -31 -60 -8 -19 -22 -42 -30 -52 -9 -11
-11 -18 -4 -23 6 -3 35 16 63 43 29 27 67 62 84 78 34 33 83 107 113 174 l21
45 -5 -100 c-10 -190 -14 -213 -36 -208 -27 7 -34 -19 -15 -56 9 -16 16 -43
16 -58 0 -18 13 -42 35 -67 19 -21 32 -43 29 -47 -6 -10 46 -12 70 -3 9 3 16
13 16 21 0 12 -8 13 -41 8 -38 -7 -40 -6 -31 11 13 26 22 94 23 187 2 75 3 78
23 72 57 -16 83 -16 130 4 27 12 51 20 53 17 2 -2 -5 -19 -16 -39 -25 -45 -32
-91 -17 -112 10 -13 23 -14 93 -7 129 15 179 5 169 -32 -3 -13 1 -44 10 -70
13 -37 20 -46 39 -46 33 0 62 29 80 80 22 63 71 227 82 274 11 50 33 65 67 47
14 -8 24 -19 23 -24 -1 -6 7 -12 18 -14 11 -2 29 -8 40 -13 44 -18 57 -19 72
-5 18 18 11 58 -15 81 -43 38 -99 67 -134 68 -21 0 -38 5 -38 11 0 28 42 178
55 199 22 34 5 70 -44 96 -52 26 -69 25 -81 -4 -7 -19 -23 -29 -62 -41 -80
-24 -132 -29 -157 -15 -28 15 -31 11 -36 -36 -3 -40 -27 -118 -72 -236 l-25
-66 -65 -16 c-35 -9 -90 -19 -122 -22 l-58 -7 8 54 c7 44 14 129 18 197 2 22
16 12 38 -26 33 -59 112 -142 135 -142 15 0 18 4 13 18 -3 9 -22 60 -42 112
-19 52 -51 114 -69 137 -19 23 -34 46 -34 51 0 12 19 21 70 36 14 4 31 16 38
26 10 16 6 23 -29 51 -40 31 -42 32 -69 16 -45 -27 -51 -22 -50 41 0 31 -1 71
-4 87 -2 17 -4 36 -5 42 -1 19 -77 63 -106 63 -14 0 -28 -6 -31 -14z m726
-446 c0 -44 -9 -93 -30 -170 -4 -14 -15 -26 -26 -28 -17 -2 -19 2 -16 42 5 57
-14 86 -78 117 -62 30 -65 49 -7 50 23 0 65 9 92 19 28 10 53 19 58 19 4 1 7
-21 7 -49z m-50 -260 c0 -6 -12 -51 -27 -100 -27 -88 -53 -120 -49 -60 1 17
-3 30 -8 30 -6 0 -3 7 7 14 29 22 20 46 -25 66 -30 13 -47 16 -60 9 -22 -12
-23 -32 -2 -50 9 -7 20 -24 25 -38 12 -31 -1 -41 -56 -41 -22 0 -58 -5 -80
-10 -22 -5 -41 -7 -43 -5 -2 2 15 35 39 73 41 66 45 69 103 87 110 33 176 42
176 25z"/>
<path d="M4672 1563 c-5 -10 -15 -37 -22 -61 -8 -24 -22 -48 -32 -53 -10 -5
-18 -20 -18 -33 0 -25 -22 -59 -79 -118 l-35 -38 28 0 c18 0 45 14 77 41 49
41 167 88 222 89 15 0 27 5 27 10 0 6 7 10 16 10 28 0 10 34 -31 57 -30 17
-49 21 -74 16 -31 -5 -33 -4 -26 13 23 55 -28 118 -53 67z"/>
<path d="M4341 1502 c-7 -13 -6 -27 5 -46 20 -40 18 -46 -15 -46 -41 0 -155
-30 -163 -43 -9 -15 18 -64 42 -77 16 -9 34 -3 98 35 44 25 81 45 84 45 8 0
31 -130 24 -137 -3 -3 -12 0 -21 7 -18 15 -17 16 -43 -35 -34 -67 -268 -310
-343 -357 -40 -24 -46 -45 -13 -40 37 6 140 62 216 117 77 55 78 55 84 31 3
-14 3 -46 0 -73 -19 -143 -29 -204 -37 -209 -10 -6 -12 -55 -3 -78 3 -9 22
-24 41 -33 34 -16 36 -16 49 1 9 13 10 25 2 47 -10 29 -8 77 11 263 9 84 8
103 -4 123 -14 21 -13 24 28 62 23 22 49 41 58 41 25 0 36 21 32 60 -3 19 -4
46 -4 60 7 227 0 257 -65 285 -46 19 -51 19 -63 -3z"/>
<path d="M4727 1128 c-8 -13 -30 -52 -50 -88 -40 -74 -79 -120 -85 -101 -2 6
-1 19 4 29 4 9 6 22 5 29 -1 6 2 14 7 17 21 13 -2 53 -43 80 -36 22 -48 25
-65 16 -24 -13 -24 -13 -4 -52 13 -26 15 -50 9 -148 -11 -180 24 -285 108
-332 36 -20 56 -23 147 -22 118 0 189 16 219 48 21 23 21 23 1 41 -22 20 -96
23 -130 5 -10 -5 -46 -13 -79 -17 -126 -13 -188 41 -192 165 -2 66 4 82 30 82
22 0 138 86 174 130 42 49 44 76 11 111 -33 35 -49 36 -67 7z"/>
</g>
</svg>
